<svg width="500" height="463" fill="none" xmlns="http://www.w3.org/2000/svg">
    <path
        d="M433.839 221.75c0-100.912-82.308-182.718-183.839-182.718-101.531 0-183.839 81.806-183.839 182.718 0 100.912 82.308 182.718 183.839 182.718 101.531 0 183.839-81.806 183.839-182.718ZM45 221.75C45 109.222 136.782 18 250 18s205 91.222 205 203.75S363.218 425.5 250 425.5 45 334.278 45 221.75Z"
        fill="#424242" />
    <path
        d="M202.198 404.174c14.591-21.056 13.557-36.858-6.463-56.547-20.02-19.684-31.673-48.482-31.673-48.482s-4.353-16.726-14.268-15.187c-9.914 1.539-17.194 26.534 3.574 41.825 20.767 15.286-4.136 25.673-12.126 11.316-7.99-14.358-29.807-51.268-41.121-58.327-11.31-7.059-19.273-3.104-16.606 11.446 2.667 14.551 49.965 49.818 45.363 57.45-4.602 7.628-20.82-8.968-20.82-8.968s-50.75-45.445-61.8-33.603c-11.048 11.843 8.383 21.766 36.075 38.262 27.697 16.491 29.844 20.847 25.915 27.087-3.934 6.239-65.064-44.475-70.806-22.976-5.737 21.499 62.387 27.739 58.183 42.581-4.205 14.848-47.988-28.093-56.943-11.362-8.96 16.736 61.783 36.399 62.356 36.545 22.851 5.833 80.886 18.192 101.16-11.06Z"
        fill="#fff" />
    <path
        d="M90.993 255c-8.519 0-16.133 3.477-21.442 9.784-3.284 3.906-6.714 10.202-6.993 19.63-3.573-1.02-7.01-1.59-10.219-1.59-8.156 0-15.523 3.106-20.732 8.749-6.693 7.242-9.666 16.142-8.372 25.047.616 4.241 2.042 8.043 4.173 11.562-4.494 3.613-7.804 8.644-9.403 14.694-1.253 4.743-2.536 14.621 4.167 24.797a28.46 28.46 0 0 0-1.2 2.06c-4.03 7.603-4.288 16.194-.73 24.195 5.393 12.126 18.795 21.68 44.82 31.935 16.192 6.379 31.004 10.458 31.136 10.494 21.405 5.517 40.764 8.32 57.523 8.32 30.804 0 52.857-9.376 65.549-27.866 20.427-29.775 17.506-57.008-8.924-83.259-14.629-14.526-24.353-35.945-26.379-40.646-4.083-13.92-14.881-29.393-32.829-29.393h-.005c-1.511 0-3.037.12-4.541.356-7.862 1.228-14.734 5.726-19.643 12.492-5.299-6.547-10.445-11.755-15.102-14.694-7.02-4.424-14.034-6.667-20.853-6.667Zm0 20.917c2.684 0 5.962 1.134 9.577 3.414 11.224 7.075 32.882 44.072 40.812 58.462 2.657 4.821 7.199 6.861 11.287 6.861 8.114 0 14.449-8.016.742-18.203-20.611-15.327-13.381-40.379-3.541-41.922a8.151 8.151 0 0 1 1.268-.099c8.945 0 12.892 15.321 12.892 15.321s11.565 28.865 31.435 48.595c19.869 19.734 20.895 35.573 6.414 56.678-9.877 14.391-28.783 16.268-48.158 16.268-20.095 0-40.731-3.52-52.276-6.496-.568-.146-70.743-18.541-61.85-35.316 1.494-2.819 3.957-3.948 7.056-3.948 12.523 0 35.303 18.522 45.095 18.522 2.189 0 3.82-1.683 4.452-3.942 4.357-15.59-63.533-20.374-57.835-41.923 1.005-3.812 3.731-5.36 7.562-5.355 16.549 0 53.677 28.922 61.46 28.922.594 0 1.02-.172 1.252-.538 3.899-6.254 2.103-11.346-25.38-27.875-27.483-16.535-47.114-25.755-36.143-37.625 1.263-1.371 3.052-1.977 5.225-1.977 16.686.005 56.108 35.657 56.108 35.657s10.64 10.997 17.076 10.997c1.478 0 2.736-.58 3.588-2.013 4.562-7.645-42.374-42.994-45.021-57.578-1.794-9.883 1.257-14.887 6.903-14.887Z"
        fill="#424242" />
    <path
        d="M296.9 404.174c-14.59-21.056-13.557-36.858 6.463-56.547 20.02-19.684 31.674-48.482 31.674-48.482s4.353-16.726 14.267-15.187c9.915 1.539 17.194 26.534-3.573 41.825-20.768 15.286 4.135 25.673 12.125 11.316 7.99-14.358 29.807-51.268 41.122-58.327 11.309-7.059 19.272-3.104 16.605 11.446-2.667 14.551-49.965 49.818-45.363 57.45 4.602 7.628 20.821-8.968 20.821-8.968s50.75-45.445 61.799-33.603c11.049 11.843-8.383 21.766-36.074 38.262-27.698 16.491-29.845 20.847-25.916 27.087 3.934 6.239 65.065-44.475 70.807-22.976 5.736 21.499-62.388 27.739-58.183 42.581 4.204 14.848 47.987-28.093 56.942-11.362 8.96 16.736-61.783 36.399-62.356 36.545-22.851 5.833-80.885 18.192-101.16-11.06Z"
        fill="#fff" />
    <path
        d="M408.105 255c8.519 0 16.133 3.477 21.442 9.784 3.284 3.906 6.715 10.202 6.994 19.63 3.572-1.02 7.008-1.59 10.218-1.59 8.156 0 15.523 3.106 20.732 8.749 6.694 7.242 9.667 16.142 8.372 25.047-.615 4.241-2.041 8.043-4.173 11.562 4.494 3.613 7.804 8.644 9.404 14.694 1.252 4.743 2.536 14.621-4.168 24.797.426.664.826 1.354 1.2 2.06 4.031 7.603 4.288 16.194.731 24.195-5.393 12.126-18.795 21.68-44.821 31.935-16.191 6.379-31.004 10.458-31.135 10.494-21.406 5.517-40.765 8.32-57.524 8.32-30.804 0-52.857-9.376-65.548-27.866-20.427-29.775-17.507-57.008 8.924-83.259 14.628-14.526 24.352-35.945 26.378-40.646 4.083-13.92 14.881-29.393 32.83-29.393h.005c1.51 0 3.036.12 4.541.356 7.861 1.228 14.733 5.726 19.643 12.492 5.299-6.547 10.445-11.755 15.102-14.694 7.019-4.424 14.033-6.667 20.853-6.667Zm0 20.917c-2.684 0-5.962 1.134-9.577 3.414-11.224 7.075-32.882 44.072-40.812 58.462-2.657 4.821-7.198 6.861-11.287 6.861-8.114 0-14.449-8.016-.742-18.203 20.612-15.327 13.382-40.379 3.542-41.922a8.17 8.17 0 0 0-1.268-.099c-8.946 0-12.892 15.321-12.892 15.321s-11.566 28.865-31.435 48.595c-19.87 19.734-20.896 35.573-6.415 56.678 9.877 14.391 28.783 16.268 48.158 16.268 20.095 0 40.731-3.52 52.276-6.496.568-.146 70.744-18.541 61.851-35.316-1.495-2.819-3.957-3.948-7.057-3.948-12.523 0-35.302 18.522-45.095 18.522-2.189 0-3.82-1.683-4.451-3.942-4.358-15.59 63.533-20.374 57.834-41.923-1.005-3.812-3.731-5.36-7.561-5.355-16.549 0-53.678 28.922-61.46 28.922-.595 0-1.021-.172-1.253-.538-3.899-6.254-2.103-11.346 25.38-27.875 27.484-16.535 47.115-25.755 36.143-37.625-1.262-1.371-3.052-1.977-5.225-1.977-16.685.005-56.108 35.657-56.108 35.657s-10.64 10.997-17.075 10.997c-1.479 0-2.736-.58-3.589-2.013-4.562-7.645 42.375-42.994 45.022-57.578 1.794-9.883-1.258-14.887-6.904-14.887Z"
        fill="#424242" />
    <path
        d="M319.277 228.901c0-23.665-30.692 12.403-68.64 12.564-37.945-.159-68.637-36.227-68.637-12.564 0 15.69 7.507 41.208 27.669 56.69 4.012-13.804 26.057-24.862 29.208-23.274 4.487 2.261 4.235 8.527 11.76 14.048 7.526-5.521 7.274-11.785 11.761-14.048 3.153-1.588 25.196 9.47 29.207 23.274 20.162-15.482 27.67-41 27.67-56.688l.002-.002Z"
        fill="#424242" />
    <path
        d="M262.4 262.315c-4.487 2.261-4.235 8.527-11.761 14.048-7.525-5.521-7.273-11.785-11.76-14.048-3.153-1.588-25.196 9.47-29.207 23.274 10.194 7.828 23.625 13.089 40.955 13.217H250.656c17.33-.126 30.761-5.389 40.955-13.217-4.011-13.804-26.056-24.862-29.207-23.274h-.004Z"
        fill="#424242" />
    <path
        d="M373 196c9.389 0 17-7.611 17-17s-7.611-17-17-17-17 7.611-17 17 7.611 17 17 17ZM128 196c9.389 0 17-7.611 17-17s-7.611-17-17-17-17 7.611-17 17 7.611 17 17 17Z"
        fill="#424242" />
    <path
        d="M313.06 171.596c6.736 2.372 9.416 16.183 16.221 12.575 12.886-6.834 17.779-22.794 10.927-35.647-6.852-12.853-22.854-17.732-35.741-10.898s-17.779 22.793-10.927 35.646c3.234 6.067 13.499-3.797 19.52-1.676ZM188.554 171.596c-6.736 2.372-9.416 16.183-16.22 12.575-12.887-6.834-17.779-22.794-10.927-35.647 6.852-12.853 22.853-17.732 35.74-10.898s17.779 22.793 10.927 35.646c-3.234 6.067-13.499-3.797-19.52-1.676Z"
        fill="#424242" />
</svg>