<svg xmlns="http://www.w3.org/2000/svg" width="400" height="400">
	<path
		d="M261.6 50.269c-.55.112-1.282.455-1.626.763-.345.307-1.217.677-1.938.821-1.351.27-8.835 7.283-8.837 8.279 0 .257-.715 1.498-1.589 2.757-.874 1.26-1.705 2.749-1.846 3.311-.141.562-.595 1.203-1.01 1.425-.466.249-.754.836-.754 1.535 0 .623-.354 1.582-.787 2.132-.432.55-.904 1.736-1.048 2.636-.144.899-.6 1.941-1.013 2.316-.499.451-.752 1.222-.752 2.292 0 .886-.346 2.343-.768 3.238-.447.945-.95 3.356-1.202 5.761-.247 2.355-.692 4.503-1.032 4.989-.329.47-.598 1.425-.598 2.124 0 2.667-4.724 5.248-7.338 4.008-.76-.361-1.733-.656-2.16-.656-.428 0-1.104-.36-1.502-.8-.398-.44-1.212-.8-1.808-.8-.596 0-1.513-.337-2.038-.749-.525-.412-1.763-.885-2.752-1.052-.989-.166-2.426-.639-3.194-1.051-.8-.428-2.204-.748-3.287-.748-1.04 0-2.805-.36-3.921-.8-2.996-1.181-14.397-1.181-17.504 0-1.158.44-2.936.8-3.953.8-1.119 0-2.341.302-3.096.765-.686.421-2.147.896-3.247 1.056-1.1.16-2.429.626-2.954 1.035-.525.409-1.442.744-2.038.744-.596 0-1.394.342-1.772.76-.379.419-1.288.873-2.022 1.011-.733.138-1.554.515-1.823.84-.633.762-2.154.756-2.791-.011-.274-.33-.74-.6-1.035-.6-1.169 0-3.365-2.44-3.367-3.741-.002-.693-.283-1.796-.626-2.453-.357-.685-.792-3.16-1.02-5.8-.242-2.807-.633-4.967-1-5.53-.331-.508-.762-1.907-.957-3.109-.196-1.202-.61-2.439-.92-2.749-.31-.31-.678-1.277-.817-2.147-.14-.871-.515-1.684-.834-1.806-.319-.123-.703-.877-.852-1.676-.15-.799-.512-1.544-.803-1.656-.292-.112-.726-.796-.965-1.52s-.787-1.636-1.219-2.027c-.432-.39-.785-.943-.785-1.228 0-.285-.242-.662-.537-.838-.295-.176-1.155-1.22-1.912-2.32-1.765-2.568-2.924-3.734-5.151-5.186-.99-.646-2.16-1.474-2.6-1.841-.44-.367-1.688-.782-2.774-.923-1.086-.14-2.384-.524-2.886-.852-1.351-.886-5.93-.769-7.94.202-.88.425-2.022.779-2.537.786-.515.008-1.394.374-1.954.814-.559.44-1.265.8-1.568.8-.724 0-6.541 5.77-6.541 6.488 0 .306-.45 1.167-1 1.912-.55.745-1 1.743-1 2.216 0 .473-.36 1.186-.8 1.584-.44.398-.8 1.212-.8 1.808 0 .596-.345 1.523-.767 2.059-.422.537-.894 1.686-1.05 2.554-.155.869-.597 1.939-.983 2.379-.385.44-.792 1.662-.903 2.716-.111 1.054-.473 2.224-.803 2.6-.33.376-.726 1.901-.879 3.388-.169 1.637-.534 2.958-.926 3.35-.474.474-.724 1.829-.94 5.096-.162 2.448-.577 5.494-.922 6.77-.916 3.388-.899 17.85.025 20.33 1.138 3.059 1.276 13.207.197 14.579-.467.593-.849 1.388-.849 1.765 0 .378-.855 1.614-1.9 2.747-2.569 2.785-2.786 3.036-5.231 6.04a499.686 499.686 0 0 1-3.471 4.219c-1.753 2.094-3.386 4.516-3.826 5.674-.194.509-.534.926-.757.926-.222 0-.67.636-.995 1.414-.325.778-.867 1.691-1.205 2.029-.338.338-.615.937-.615 1.332 0 .394-.337 1.146-.748 1.671-.411.525-.873 1.527-1.026 2.226-.152.7-.531 1.483-.841 1.741-.31.257-.68 1.124-.823 1.927-.143.803-.597 2.021-1.011 2.707-.413.686-.751 1.953-.751 2.816 0 .862-.352 2.258-.782 3.101-2.033 3.988-2.141 29.445-.137 32.503.336.513.703 2.148.816 3.633.119 1.58.457 2.989.813 3.397.335.383.755 1.621.933 2.751.179 1.129.609 2.368.957 2.752.348.384.773 1.591.946 2.681.172 1.09.615 2.413.983 2.94 1.084 1.546.982 12.275-.129 13.688-.488.62-.8 1.623-.8 2.57 0 .853-.368 2.265-.817 3.136-.449.872-.923 2.755-1.053 4.185-.129 1.43-.55 3.32-.934 4.2-1.755 4.021-1.768 33.92-.016 37.403.388.772.84 2.65 1.003 4.175.163 1.524.535 3.143.826 3.597.291.454.719 1.868.95 3.143.231 1.274.695 2.709 1.031 3.189.335.479.61 1.329.61 1.888 0 .559.405 1.734.9 2.611 1.372 2.43 1.37 15.55-.003 17.988-.693 1.232-.897 2.233-.897 4.406 0 1.967-.222 3.231-.74 4.206-.443.834-.833 2.65-.971 4.52-.13 1.75-.499 3.535-.839 4.054-.335.511-.733 2.344-.885 4.074-.151 1.73-.611 4.008-1.02 5.061-1.211 3.113-1.033 3.904 1.38 6.127 3.863 3.56 5.498 4.87 6.693 5.366.65.269 1.182.644 1.182.833 0 .189.443.455.984.591.541.135 1.185.49 1.432.787.246.297 1.109.758 1.916 1.024.807.266 1.964.85 2.571 1.297 1.711 1.264 1.815.758 1.997-9.74.129-7.442.315-10.185.775-11.4.332-.88.726-3.213.874-5.184.153-2.038.521-3.969.855-4.478.322-.492.745-2.316.94-4.052.194-1.736.624-3.591.956-4.121.333-.531.717-1.852.854-2.936.138-1.084.526-2.276.864-2.649.338-.373.755-1.571.928-2.661.172-1.09.615-2.413.983-2.94 1.068-1.524.972-10.07-.129-11.47-.44-.559-.8-1.346-.8-1.747 0-.402-.333-1.053-.74-1.446-.408-.394-.94-1.306-1.184-2.028-.243-.721-.72-1.589-1.059-1.928-.34-.34-.617-1.026-.617-1.527 0-.5-.342-1.219-.76-1.597-.419-.379-.884-1.352-1.034-2.162-.15-.811-.595-2.014-.988-2.674-.393-.66-.825-2.056-.959-3.103-.135-1.047-.507-2.307-.829-2.8-.321-.493-.707-2.337-.858-4.097-.151-1.76-.522-3.807-.823-4.549-.749-1.84-.751-11.375-.004-13.501.3-.852.675-2.99.834-4.75.162-1.798.571-3.638.933-4.2.354-.55.776-1.961.936-3.136.161-1.174.561-2.434.889-2.8.327-.365.723-1.353.88-2.196.156-.842.526-1.625.823-1.739.296-.113.652-.813.791-1.555s.594-1.742 1.011-2.223c.417-.48.758-1.207.758-1.615 0-.408.45-1.133 1-1.611s1-1.289 1-1.801c0-.513.36-1.24.8-1.617 1.185-1.015 1.185-7.691 0-9.198-.44-.559-.8-1.346-.8-1.747 0-.402-.345-1.053-.768-1.446-.422-.394-.897-1.256-1.056-1.916-.159-.66-.623-1.522-1.032-1.916-.409-.393-.744-1.151-.744-1.684 0-.533-.339-1.291-.753-1.684-.415-.394-.885-1.346-1.045-2.116-.16-.77-.556-1.701-.88-2.069-.325-.368-.687-1.448-.806-2.4s-.538-2.271-.93-2.931c-.392-.66-.844-2.46-1.006-4-.162-1.54-.583-3.242-.937-3.782-.968-1.478-.954-18.851.016-20.618.362-.661.787-2.225.943-3.478.181-1.445.561-2.526 1.041-2.961.441-.399.757-1.217.757-1.962 0-.702.36-1.691.8-2.199.44-.507.8-1.156.8-1.441 0-.285.45-1.003 1-1.597.55-.593 1-1.386 1-1.762 0-.376.405-1.138.9-1.693.495-.555 1.62-1.872 2.5-2.927 3.429-4.109 9.436-9.37 11.4-9.983.55-.171 1.235-.646 1.523-1.054.287-.409.955-.743 1.484-.743s1.284-.344 1.677-.765c.394-.42 1.394-.891 2.222-1.045.828-.155 1.648-.536 1.823-.848.174-.312 1.027-.675 1.894-.806.867-.132 2.117-.553 2.777-.937.66-.383 2.251-.814 3.534-.956 1.284-.142 2.864-.532 3.512-.867.678-.351 3.005-.74 5.495-.92 2.987-.216 4.614-.52 5.278-.984.527-.37 1.395-.672 1.927-.672 1.221 0 2.836-1.529 6.974-6.6 3.649-4.472 9.989-10.854 11.149-11.222.416-.132 1.178-.631 1.692-1.109 1.91-1.774 3.121-2.669 3.611-2.669.277 0 .815-.344 1.195-.764.381-.42 1.129-.874 1.662-1.008.534-.134.971-.406.971-.605 0-.198.675-.581 1.5-.85s1.929-.823 2.454-1.231c.525-.408 1.535-.742 2.246-.742.711 0 1.721-.333 2.246-.74.528-.409 1.992-.859 3.278-1.006 1.278-.147 2.786-.57 3.351-.94 1.554-1.018 13.894-1.019 15.447-.002.587.385 2.144.812 3.461.949 1.584.166 2.622.502 3.067.995.371.409 1.067.744 1.548.744 1.037 0 5.513 2.17 6.212 3.012.268.323.8.588 1.181.588.643 0 1.843.881 3.823 2.808.448.436.974.792 1.169.792.84 0 8.626 7.411 9.613 9.15.42.738.852 1.272 2.704 3.34.605.676 1.1 1.362 1.1 1.525 0 .596 5.104 5.585 5.714 5.585.346 0 .914.285 1.262.633.359.359 1.89.805 3.529 1.029 1.592.217 3.276.64 3.741.94.466.301 1.996.674 3.4.831 1.405.156 3.181.618 3.948 1.026.767.407 1.916.741 2.553.741s1.72.345 2.406.766c.686.422 1.91.89 2.721 1.04.81.15 1.783.615 2.162 1.034.378.418 1.11.76 1.626.76.516 0 1.28.342 1.697.759.418.418 1.33.885 2.027 1.038.698.153 1.363.525 1.478.825.115.301.572.662 1.014.803 2.581.819 6.902 4.571 14.499 12.589.824.87 2.623 3.562 2.623 3.926 0 .168.45.915 1 1.66.55.745 1 1.697 1 2.115 0 .417.351 1.205.78 1.75.429.545.899 1.792 1.046 2.77.147.978.606 2.443 1.02 3.256 1.025 2.01 1.11 19.286.108 21.909-.337.88-.834 2.69-1.106 4.022-.271 1.332-.798 2.857-1.171 3.389-.372.532-.677 1.386-.677 1.899 0 .512-.35 1.597-.777 2.411-.428.813-1.532 3.064-2.454 5.002-.922 1.938-2.094 4.139-2.605 4.892-.511.753-1.12 2.047-1.353 2.877-.233.829-.691 1.857-1.017 2.284-.847 1.107-.74 3.795.206 5.224.437.66.796 1.581.797 2.046.002.465.338 1.275.748 1.8.41.525.881 1.404 1.047 1.954.167.55.568 1.302.891 1.671.324.37.763 1.447.976 2.394.213.948.655 2.019.981 2.379.327.361.701 1.354.831 2.206.131.853.494 1.846.807 2.208.314.362.744 1.883.956 3.379.212 1.497.638 3.001.947 3.342.343.38.661 2.018.818 4.221.141 1.98.514 4.806.829 6.279.726 3.398.726 6.773.003 10.438-.314 1.586-.693 4.5-.844 6.475-.199 2.61-.481 3.856-1.031 4.554-.494.629-.756 1.603-.756 2.814 0 1.043-.326 2.461-.747 3.246-.41.767-.88 2.024-1.044 2.794-.164.77-.527 1.67-.806 2-.28.33-.632 1.05-.784 1.6-.388 1.405-2.586 5.932-3.008 6.193-.192.119-.468.756-.613 1.416-.145.659-.552 1.487-.904 1.84-1.445 1.445-1.482 8.998-.054 11.035.418.596.76 1.607.76 2.246s.378 1.643.84 2.23c.462.587.939 1.826 1.06 2.754.121.927.553 2.115.96 2.64.432.557.74 1.606.74 2.522 0 .862.357 2.352.794 3.311.437.958.902 3.063 1.034 4.678.132 1.614.533 3.655.891 4.535.53 1.304.691 3.786.866 13.4L301 371l.979-.109c.538-.06 1.258-.36 1.6-.666.341-.307 1.284-.68 2.095-.831.81-.15 1.783-.615 2.162-1.034.378-.418 1.044-.76 1.48-.76.436 0 1.195-.405 1.688-.9.493-.495 1.571-1.35 2.396-1.9.825-.55 1.903-1.405 2.396-1.9.493-.495 1.1-.9 1.35-.9s.454-.264.454-.586c0-.322.345-.771.767-.997 1.09-.583 1.366-2.391.68-4.452-.323-.971-.792-4.45-1.042-7.732-.289-3.797-.679-6.403-1.073-7.165-.341-.659-.712-2.294-.825-3.633-.114-1.339-.544-2.996-.957-3.682-.412-.686-.75-1.877-.75-2.646 0-.786-.345-1.838-.787-2.399-.432-.55-.906-1.79-1.053-2.754-.146-.965-.557-2.087-.913-2.495-1.069-1.224-1.166-9.436-.133-11.156.431-.717.908-1.829 1.059-2.471.152-.643.625-1.612 1.052-2.154.426-.542.775-1.474.775-2.07 0-.596.338-1.39.751-1.763.47-.426.822-1.421.941-2.667.105-1.092.482-2.307.836-2.699.355-.392.764-1.785.91-3.096.145-1.311.578-2.923.962-3.583.49-.843.773-2.51.951-5.6.139-2.42.459-5.21.711-6.2.604-2.375.608-11.766.006-13.8-.261-.88-.582-3.49-.713-5.8-.158-2.764-.478-4.679-.934-5.6-.382-.77-.809-2.39-.95-3.6-.14-1.21-.618-2.913-1.063-3.785-.444-.871-.809-2.041-.811-2.6-.001-.558-.36-1.555-.797-2.215-.437-.66-.796-1.616-.797-2.125-.002-.508-.477-1.926-1.056-3.151-1.362-2.879-1.243-8.416.211-9.77.521-.486.842-1.279.842-2.081 0-.712.298-1.72.662-2.24.364-.52.815-1.762 1.001-2.759.186-.997.614-2.117.95-2.489.337-.371.714-1.645.84-2.83.125-1.185.541-2.605.924-3.155.453-.65.777-2.121.926-4.2.126-1.76.548-3.92.938-4.8 1.028-2.322 1.024-20.78-.006-23.13-.369-.841-.776-2.731-.904-4.2-.128-1.468-.547-3.21-.93-3.87-.384-.66-.803-1.897-.932-2.75-.129-.852-.52-1.865-.869-2.25s-.74-1.398-.87-2.25c-.13-.853-.569-1.919-.977-2.369-.407-.451-.856-1.396-.997-2.1-.141-.705-.405-1.281-.587-1.281-.182 0-.696-.765-1.14-1.7-.94-1.975-1.487-2.863-2.729-4.428-.495-.623-.9-1.317-.9-1.54 0-.497-9.076-11.603-9.849-12.052-.303-.176-.551-.574-.551-.886 0-.311-.335-.745-.744-.964-2.746-1.469-3.775-10.578-1.876-16.594.868-2.748.88-15.819.017-18.786-.331-1.14-.755-4.42-.942-7.288-.234-3.589-.537-5.519-.971-6.189-.347-.535-.753-2.143-.903-3.573-.149-1.43-.532-3.016-.851-3.524-.319-.508-.743-1.928-.943-3.155-.2-1.227-.616-2.522-.924-2.876-.309-.355-.69-1.365-.846-2.245-.157-.88-.555-1.901-.885-2.269-.33-.368-.698-1.448-.817-2.4-.12-.952-.535-2.091-.923-2.531-.388-.44-.832-1.397-.987-2.127-.154-.73-.522-1.42-.818-1.533-.296-.114-.663-.776-.816-1.473-.295-1.343-.873-2.108-3.801-5.037-2.845-2.844-3.677-3.48-4.97-3.798-.66-.162-1.527-.589-1.927-.949-.737-.665-9.426-1.114-11.873-.614m9.413 21.918c.763.762 1.387 1.548 1.387 1.746 0 .197.345.798.767 1.334.422.537.895 1.686 1.051 2.554.156.869.551 1.885.877 2.26.343.392.679 1.831.794 3.4.111 1.495.482 3.166.826 3.711.46.732.714 2.785.964 7.8.186 3.745.545 7.258.796 7.808 1 2.183.938 16.747-.079 18.608-1.875 3.431-2.323 3.545-12.672 3.212-13.881-.448-14.022-.574-13.56-12.094.152-3.813.525-7.773.829-8.822.303-1.047.677-3.974.831-6.504.18-2.948.549-5.288 1.028-6.515.411-1.053.748-2.77.748-3.815 0-1.085.33-2.548.769-3.409.423-.829.896-2.262 1.051-3.184.155-.923.619-2.106 1.031-2.631.412-.525.749-1.291.749-1.704 0-.412.36-1.058.8-1.435.44-.377.8-.86.8-1.074 0-2.882 7.645-3.815 10.213-1.246m-133.537.644c.481.182 1.089.744 1.35 1.25a10.52 10.52 0 0 0 1.171 1.719c.384.44.826 1.34.982 2 .156.66.517 1.47.801 1.8.285.33.645 1.32.799 2.2.154.88.554 2.025.889 2.544.334.519.751 2.409.926 4.2.174 1.791.588 3.796.919 4.456.387.771.699 3.058.872 6.4.149 2.86.519 6.1.824 7.2.33 1.192.602 4.53.672 8.264.171 8.99.357 8.857-13.33 9.53-10.266.505-10.683.41-12.706-2.902-1.047-1.716-1.152-18.373-.13-20.791.256-.605.583-3.575.727-6.6.16-3.348.492-6.049.848-6.901.321-.77.732-2.538.912-3.93.18-1.391.594-2.831.918-3.2.325-.368.72-1.274.877-2.013.157-.739.717-1.979 1.244-2.756.528-.777.959-1.546.959-1.708 0-1.292 6.66-1.827 9.476-.762M194.6 187.845c-1.32.297-4.116.694-6.212.881-2.234.2-4.222.601-4.8.969-.544.345-1.798.758-2.788.918-.99.159-2.229.626-2.754 1.038-.525.412-1.442.749-2.038.749-.596 0-1.41.36-1.808.8-.398.44-1.12.8-1.604.8-.483 0-1.365.45-1.958 1-.594.55-1.366 1-1.715 1-.562 0-3.146 2.002-6.066 4.7-.535.495-1.083.9-1.218.9-.134 0-1.496 1.53-3.027 3.4-1.531 1.87-2.906 3.4-3.055 3.4-.149 0-.391.481-.538 1.068-.148.588-.617 1.512-1.044 2.054-.426.542-.775 1.384-.775 1.87 0 .486-.338 1.19-.75 1.563-.497.45-.844 1.509-1.029 3.137-.152 1.351-.543 2.971-.867 3.598-.81 1.566-.81 8.254 0 9.82.324.627.716 2.299.871 3.715.187 1.711.532 2.815 1.028 3.291.411.393.747 1.13.747 1.638 0 .507.344 1.233.764 1.613.42.381.883 1.165 1.028 1.742.145.578.656 1.448 1.136 1.933.479.485 1.053 1.125 1.273 1.42 1.599 2.142 4.427 5.015 6.799 6.907 1.54 1.228 3.07 2.471 3.4 2.761.33.291 1.172.757 1.871 1.036.699.279 1.369.761 1.488 1.071.119.309.665.563 1.213.563s1.319.339 1.712.753c.394.415 1.346.885 2.116 1.045.77.16 1.683.54 2.029.844.346.305 1.516.67 2.6.813 1.084.142 2.601.573 3.371.958.805.403 2.929.824 5 .993 1.98.161 4.086.54 4.68.843 1.535.783 11.408.769 12.924-.017.602-.313 2.648-.691 4.546-.841 2.04-.161 3.859-.533 4.45-.91.55-.35 1.961-.769 3.136-.929 1.174-.161 2.434-.561 2.8-.889.365-.327 1.364-.725 2.219-.884.855-.159 1.89-.624 2.3-1.034.41-.41 1.189-.745 1.731-.745.575 0 1.163-.332 1.411-.795.235-.438.897-.914 1.472-1.058.576-.145 1.336-.514 1.689-.821.353-.306 1.902-1.55 3.442-2.763 2.428-1.912 3.643-3.148 6.6-6.715a55.708 55.708 0 0 1 1.5-1.704c.495-.539.9-1.228.9-1.531 0-.304.45-1.086 1-1.74.55-.654 1-1.543 1-1.977 0-.433.335-1.217.745-1.742.413-.529.877-2.023 1.041-3.354.163-1.319.556-2.901.873-3.515.789-1.525.789-8.245 0-9.77-.317-.614-.71-2.196-.873-3.515-.164-1.331-.628-2.825-1.041-3.354-.41-.525-.745-1.265-.745-1.646s-.335-1.121-.745-1.646c-.41-.525-.886-1.403-1.058-1.952-.172-.55-.539-1.18-.814-1.4-.275-.221-1.576-1.701-2.89-3.29-2.592-3.131-9.228-8.912-10.231-8.912-.342 0-1.106-.45-1.7-1-.593-.55-1.385-1-1.759-1-.374 0-1.069-.337-1.545-.749-.475-.412-1.559-.861-2.409-.997-.85-.136-1.763-.51-2.03-.831-.266-.321-1.325-.702-2.352-.847-1.027-.144-2.312-.543-2.855-.886-.57-.36-2.515-.753-4.6-.93-1.987-.168-4.962-.588-6.612-.932-3.536-.739-7.27-.733-10.6.017m64.341 1.352c-.473.191-.97.526-1.105.744-.135.219-.778.515-1.43.658-1.356.297-3.606 2.237-3.606 3.108 0 .322-.36 1.043-.8 1.602-.668.85-.8 1.623-.8 4.691 0 3.068.132 3.841.8 4.691.44.559.8 1.314.8 1.677 0 .815 3.883 4.653 5.064 5.005.475.142 1.082.521 1.349.842.807.973 8.445.826 9.354-.179.381-.42 1.111-.869 1.623-.998 1.079-.271 3.41-3.573 3.41-4.83 0-.47.264-1.204.587-1.632.651-.861.821-3.6.245-3.956-.202-.125-.564-1.145-.805-2.266-.437-2.042-1.412-3.673-3.16-5.291-2.393-2.214-3.045-2.663-3.863-2.663-.484 0-1.206-.36-1.604-.8-.782-.865-4.33-1.1-6.059-.403m-124.085 2.416c-.52.433-1.212.787-1.54.787-.488 0-3.533 2.888-5.903 5.6-3.417 3.91-.273 12.105 5.187 13.518 5.392 1.395 5.211 1.384 8.577.512 1.761-.457 3.532-.83 3.935-.83 3.731 0 7.638-9.242 5.008-11.847-.723-.716-1.841-2.251-2.724-3.74-.678-1.143-2.766-3.213-3.241-3.213-.246 0-.905-.36-1.464-.8-1.45-1.14-6.461-1.132-7.835.013m73.115 7.951c.534.297 2.313.691 3.954.875 1.64.184 3.278.602 3.639.929.361.326 1.409.714 2.328.861.919.147 1.977.606 2.352 1.019.374.414 1.088.752 1.587.752.499 0 1.442.45 2.096 1 .654.55 1.314 1 1.468 1 .501 0 5.176 3.693 6.283 4.963 2.15 2.465 3.018 3.653 3.277 4.484.146.466.621 1.169 1.055 1.562.435.393.791 1.182.793 1.753.001.571.36 1.578.797 2.238 1.186 1.791 1.186 10.183 0 11.691-.44.559-.8 1.505-.8 2.101 0 .596-.344 1.395-.764 1.775-.42.381-.882 1.16-1.025 1.732-.144.572-.607 1.414-1.029 1.871l-1.923 2.073c-1.772 1.904-6.037 5.357-6.618 5.357-.284 0-.828.344-1.208.764-.381.42-1.163.882-1.738 1.027-.575.144-1.237.524-1.472.845-.234.32-1.145.696-2.024.834-.88.139-2.028.585-2.553.991-.556.431-1.608.739-2.522.739-.862 0-2.413.391-3.446.869-1.744.808-2.492.87-10.478.87s-8.734-.062-10.478-.87c-1.033-.478-2.584-.869-3.446-.869-.914 0-1.966-.308-2.522-.739-.525-.406-1.673-.852-2.553-.991-.879-.138-1.79-.514-2.024-.834-.235-.321-.897-.701-1.472-.845-.575-.145-1.357-.607-1.738-1.027-.38-.42-.924-.764-1.208-.764-.611 0-5.042-3.621-6.759-5.523l-2.1-2.324c-.495-.547-.9-1.305-.9-1.685 0-.379-.36-.998-.8-1.375-.456-.39-.8-1.18-.8-1.835 0-.633-.365-1.614-.812-2.182-1.213-1.542-1.218-9.686-.007-11.645.45-.729.819-1.771.819-2.316 0-.545.355-1.313.79-1.706.434-.393.909-1.096 1.056-1.562.712-2.265 8.023-9.447 9.616-9.447.123 0 .757-.45 1.411-1s1.597-1 2.096-1c.499 0 1.213-.338 1.587-.752.375-.413 1.433-.872 2.352-1.019.919-.147 1.967-.535 2.328-.861.362-.328 2.009-.746 3.67-.933 1.657-.186 3.24-.478 3.518-.65 1.763-1.09 14.478-1.262 16.347-.221m-12.175 16.442c-.137.223-.958.767-1.823 1.208-.972.496-1.573 1.084-1.573 1.54 0 .406-.36 1.196-.8 1.755-1.061 1.349-1.061 4.089 0 5.691.437.66.796 1.453.797 1.762.019 3.906 10.954 6.512 13.959 3.327 4.697-4.979 3.533-11.472-2.645-14.757-1.879-.999-7.396-1.366-7.915-.526"
		fill="#424242" fill-rule="evenodd" />
</svg>