<svg width="800" height="800" viewBox="0 0 24 24" fill="none" xmlns="http://www.w3.org/2000/svg">
	<path
		d="M15.632 7.631c-.396-.396-.594-.594-.669-.822a1 1 0 0 1 0-.618c.075-.228.273-.426.669-.822L18.47 2.53a6 6 0 0 0-8.3 6.895c.12.49.18.734.169.888a.849.849 0 0 1-.11.392c-.071.138-.208.274-.481.547L3.5 17.5a2.121 2.121 0 1 0 3 3l6.248-6.248c.273-.273.41-.41.547-.48a.85.85 0 0 1 .392-.11c.154-.011.399.049.888.168a6 6 0 0 0 6.895-8.3L18.632 8.37c-.396.396-.594.594-.823.668a1 1 0 0 1-.618 0c-.228-.074-.426-.272-.822-.668l-.737-.738Z"
		stroke="#c5c5c5" stroke-width="2" stroke-linecap="round" stroke-linejoin="round" />
</svg>
